HIERARCHY
ROOT Hips
{
	OFFSET 0.000000 95.729000 0.000000
	CHANNELS 6 Xposition Yposition Zposition Yrotation Xrotation Zrotation
	JOINT RightUpLeg
	{
		OFFSET -9.625000 -1.639000 0.000000
		CHANNELS 3 Yrotation Xrotation Zrotation
		JOINT RightLeg
		{
			OFFSET 0.000000 -41.481000 0.000000
			CHANNELS 3 Yrotation Xrotation Zrotation
			JOINT RightFoot
			{
				OFFSET 0.000000 -43.120000 0.000000
				CHANNELS 3 Yrotation Xrotation Zrotation
				End Site
				{
					OFFSET 0.000000 -7.850000 17.850000
				}
			}
		}
	}
	JOINT LeftUpLeg
	{
		OFFSET 9.625000 -1.639000 0.000000
		CHANNELS 3 Yrotation Xrotation Zrotation
		JOINT LeftLeg
		{
			OFFSET 0.000000 -43.120000 0.000000
			CHANNELS 3 Yrotation Xrotation Zrotation
			JOINT LeftFoot
			{
				OFFSET 0.000000 -43.120000 0.000000
				CHANNELS 3 Yrotation Xrotation Zrotation
				End Site
				{
					OFFSET 0.000000 -7.850000 17.850000
				}
			}
		}
	}
	JOINT Spine
	{
		OFFSET 0.000000 16.395000 0.000000
		CHANNELS 3 Yrotation Xrotation Zrotation
		JOINT Spine1
		{
			OFFSET 0.000000 10.023000 0.000000
			CHANNELS 3 Yrotation Xrotation Zrotation
			JOINT Spine2
			{
				OFFSET 0.000000 10.437000 0.000000
				CHANNELS 3 Yrotation Xrotation Zrotation
				JOINT Spine3
				{
					OFFSET 0.000000 10.023000 0.000000
					CHANNELS 3 Yrotation Xrotation Zrotation
					JOINT Neck
					{
						OFFSET 0.000000 10.713000 0.000000
						CHANNELS 3 Yrotation Xrotation Zrotation
						JOINT Head
						{
							OFFSET 0.000000 9.720000 0.000000
							CHANNELS 3 Yrotation Xrotation Zrotation
							End Site
							{
								OFFSET 0.000000 16.450000 0.000000
							}
						}
					}
					JOINT RightShoulder
					{
						OFFSET -3.275000 7.142000 0.000000
						CHANNELS 3 Yrotation Xrotation Zrotation
						JOINT RightArm
						{
							OFFSET -13.100000 0.000000 0.000000
							CHANNELS 3 Yrotation Xrotation Zrotation
							JOINT RightForeArm
							{
								OFFSET -27.250000 0.000000 0.000000
								CHANNELS 3 Yrotation Xrotation Zrotation
								JOINT RightHand
								{
									OFFSET -26.750000 0.000000 0.000000
									CHANNELS 3 Yrotation Xrotation Zrotation
									End Site
									{
										OFFSET -3.479000 0.532000 0.778000
									}
								}
							}
						}
					}
					JOINT LeftShoulder
					{
						OFFSET 3.275000 7.142000 0.000000
						CHANNELS 3 Yrotation Xrotation Zrotation
						JOINT LeftArm
						{
							OFFSET 13.100000 0.000000 0.000000
							CHANNELS 3 Yrotation Xrotation Zrotation
							JOINT LeftForeArm
							{
								OFFSET 27.250000 0.000000 0.000000
								CHANNELS 3 Yrotation Xrotation Zrotation
								JOINT LeftHand
								{
									OFFSET 26.750000 0.000000 0.000000
									CHANNELS 3 Yrotation Xrotation Zrotation
									End Site
									{
										OFFSET 3.479000 0.532000 0.778000
									}
								}
							}
						}
					}
				}
			}
		}
	}
}
MOTION
Frames: 18
Frame Time: 0.041667
32.41 94.27 24.67 -131.17 2.79 3.07 13.28 -16.52 -3.01 -0.0 31.74 -0.0 -22.6 -17.7 5.06 9.26 -17.19 7.31 -0.0 18.2 0.0 0.86 -17.17 -4.7 2.08 -2.24 -1.97 0.53 -0.56 -0.48 0.89 -0.93 -0.81 -0.67 -0.04 0.47 -0.68 -0.04 0.47 -12.22 1.1 8.39 18.44 -5.75 -7.9 18.86 -55.18 27.68 48.34 42.82 -9.82 -19.7 20.79 -53.2 4.92 -1.17 -4.29 -14.96 2.08 -65.21 -11.32 18.8 -4.57 12.26 30.0 27.1
32.43 94.27 24.68 -130.83 2.81 3.11 13.15 -16.55 -3.03 -0.0 31.8 0.0 -22.77 -17.73 5.1 9.23 -17.27 7.24 -0.0 18.15 -0.0 0.77 -17.16 -4.74 2.24 -2.24 -2.05 0.56 -0.56 -0.5 0.95 -0.93 -0.84 -0.69 -0.05 0.47 -0.69 -0.04 0.47 -12.47 1.09 8.45 18.81 -5.61 -8.1 18.77 -55.26 27.54 46.46 43.08 -10.2 -19.56 20.49 -53.49 4.35 -1.18 -4.22 -14.49 1.93 -65.2 -11.41 18.84 -4.62 12.41 29.92 27.18
32.45 94.25 24.7 -130.5 2.83 3.15 13.01 -16.6 -3.05 0.0 31.9 0.0 -22.93 -17.76 5.14 9.1 -17.41 7.17 0.0 18.19 -0.0 0.58 -17.12 -4.7 2.04 -2.26 -2.07 0.51 -0.57 -0.51 0.87 -0.93 -0.85 -0.67 -0.05 0.47 -0.68 -0.04 0.47 -12.2 1.07 8.44 21.83 -5.16 -8.92 16.16 -55.41 27.96 44.49 43.33 -10.63 -19.4 20.19 -53.78 4.95 -1.24 -4.21 -14.63 1.88 -65.23 -11.32 18.79 -4.58 12.37 29.96 27.25
32.48 94.24 24.72 -130.17 2.86 3.2 12.86 -16.66 -3.08 0.0 32.01 0.0 -23.09 -17.8 5.18 8.96 -17.55 7.1 -0.0 18.21 -0.0 0.38 -17.07 -4.66 1.84 -2.28 -2.09 0.46 -0.57 -0.51 0.79 -0.94 -0.86 -0.66 -0.05 0.47 -0.66 -0.04 0.47 -11.92 1.05 8.45 22.81 -5.0 -9.18 16.14 -55.47 27.68 42.46 43.56 -11.05 -19.24 19.89 -54.14 5.55 -1.27 -4.21 -14.75 1.8 -65.28 -11.36 18.82 -4.61 12.47 29.9 27.33
32.49 94.23 24.73 -129.82 2.89 3.23 12.69 -16.7 -3.1 -0.0 32.05 0.0 -23.23 -17.82 5.21 8.93 -17.65 7.03 0.0 18.15 0.0 0.29 -17.05 -4.7 2.74 -2.25 -2.28 0.69 -0.56 -0.56 1.16 -0.93 -0.94 -0.73 -0.06 0.48 -0.74 -0.05 0.48 -13.32 1.06 8.62 22.07 -4.9 -9.28 16.07 -55.57 27.37 41.32 43.61 -11.75 -19.46 20.19 -53.65 5.68 -1.4 -4.0 -16.18 1.85 -65.4 -11.41 18.88 -4.66 12.58 29.82 27.4
32.5 94.22 24.74 -129.47 2.93 3.25 12.52 -16.73 -3.12 0.0 32.08 0.0 -23.38 -17.84 5.24 8.89 -17.75 6.96 -0.0 18.1 -0.0 0.21 -17.04 -4.74 2.91 -2.26 -2.35 0.73 -0.57 -0.58 1.24 -0.93 -0.96 -0.75 -0.06 0.48 -0.75 -0.06 0.48 -13.64 1.04 8.68 22.39 -4.77 -9.48 16.24 -55.67 26.9 40.16 43.62 -12.41 -19.68 20.47 -53.24 5.72 -1.47 -3.94 -16.35 1.8 -65.46 -11.67 19.07 -4.81 12.87 29.59 27.47
32.51 94.24 24.76 -129.12 2.98 3.28 12.3 -16.73 -3.14 0.0 32.02 0.0 -23.47 -17.82 5.25 9.05 -17.75 6.87 -0.0 17.82 -0.0 0.34 -17.05 -4.96 3.09 -2.27 -2.42 0.78 -0.57 -0.59 1.31 -0.94 -0.99 -0.77 -0.07 0.48 -0.77 -0.06 0.48 -13.96 1.01 8.74 22.69 -4.63 -9.67 16.46 -55.76 26.39 38.05 43.74 -12.76 -19.58 20.17 -53.66 5.77 -1.57 -3.88 -16.5 1.75 -65.54 -11.81 19.21 -4.92 13.05 29.45 27.52
32.52 94.24 24.78 -128.75 3.04 3.3 12.09 -16.77 -3.15 -0.0 32.02 -0.0 -23.58 -17.83 5.28 8.98 -17.89 6.8 0.0 17.81 0.0 0.24 -17.07 -5.0 3.25 -2.29 -2.48 0.82 -0.57 -0.61 1.38 -0.94 -1.01 -0.78 -0.08 0.49 -0.79 -0.07 0.49 -14.27 0.98 8.8 22.99 -4.49 -9.88 16.67 -55.88 25.87 35.91 43.84 -13.07 -19.46 19.88 -54.01 5.81 -1.67 -3.83 -16.63 1.73 -65.61 -10.21 18.38 -4.13 11.6 30.49 27.48
32.53 94.24 24.8 -128.38 3.09 3.32 11.92 -16.81 -3.17 -0.0 32.04 0.0 -23.74 -17.84 5.33 8.92 -18.03 6.73 -0.0 17.79 0.0 0.14 -17.08 -5.02 3.41 -2.3 -2.54 0.86 -0.58 -0.62 1.45 -0.95 -1.04 -0.8 -0.08 0.49 -0.8 -0.07 0.49 -14.58 0.94 8.86 23.31 -4.35 -10.09 16.86 -55.97 25.34 31.53 44.31 -12.82 -18.46 18.24 -56.15 5.85 -1.78 -3.76 -16.75 1.71 -65.69 -10.44 18.6 -4.28 11.82 30.36 27.53
32.53 94.23 24.83 -128.01 3.15 3.34 11.77 -16.86 -3.19 -0.0 32.07 -0.0 -23.91 -17.85 5.37 8.88 -18.18 6.65 -0.0 17.77 0.0 0.06 -17.11 -5.05 3.56 -2.32 -2.61 0.9 -0.58 -0.64 1.51 -0.95 -1.07 -0.81 -0.09 0.49 -0.82 -0.08 0.49 -14.87 0.9 8.92 23.66 -4.22 -10.29 17.02 -56.02 24.83 29.16 44.44 -13.23 -18.21 17.9 -56.41 5.89 -1.86 -3.69 -16.85 1.69 -65.76 -10.51 18.72 -4.34 11.88 30.29 27.56
32.53 94.23 24.86 -127.65 3.2 3.36 11.81 -16.89 -3.21 -0.0 32.1 -0.0 -24.28 -17.84 5.47 8.67 -18.3 6.6 -0.0 17.77 -0.0 0.18 -17.13 -5.11 3.35 -2.36 -2.61 0.84 -0.59 -0.64 1.42 -0.97 -1.07 -0.8 -0.09 0.49 -0.8 -0.08 0.49 -14.6 0.85 8.93 24.62 -4.07 -10.55 17.16 -56.04 24.33 28.02 44.3 -13.86 -18.47 18.3 -55.74 6.52 -1.92 -3.68 -16.94 1.68 -65.83 -10.58 18.83 -4.41 11.93 30.23 27.58
32.53 94.22 24.89 -127.3 3.25 3.37 11.71 -16.93 -3.24 -0.0 32.12 0.0 -24.47 -17.83 5.53 8.48 -18.43 6.55 -0.0 17.77 0.0 0.32 -17.15 -5.17 3.14 -2.4 -2.62 0.79 -0.6 -0.64 1.34 -0.99 -1.07 -0.78 -0.09 0.49 -0.79 -0.08 0.49 -14.32 0.81 8.95 25.56 -3.94 -10.81 17.31 -56.02 23.84 26.88 44.13 -14.48 -18.73 18.65 -55.08 7.14 -1.96 -3.66 -17.02 1.66 -65.91 -10.69 18.95 -4.48 12.0 30.14 27.61
32.52 94.21 24.92 -126.96 3.28 3.39 11.61 -16.98 -3.26 -0.0 32.19 0.0 -24.67 -17.85 5.6 8.37 -18.62 6.48 -0.0 17.91 -0.0 0.08 -17.17 -5.1 4.07 -2.34 -2.78 1.03 -0.59 -0.68 1.72 -0.96 -1.14 -0.86 -0.11 0.5 -0.86 -0.1 0.5 -15.76 0.76 9.13 23.73 -4.04 -10.68 18.71 -55.98 22.99 24.5 44.17 -14.88 -18.2 17.9 -56.01 5.93 -2.05 -3.49 -17.07 1.64 -65.98 -10.74 19.02 -4.53 12.01 30.1 27.64
32.51 94.2 24.96 -126.62 3.3 3.41 11.51 -17.0 -3.28 0.0 32.27 0.0 -24.86 -17.87 5.69 8.25 -18.79 6.4 -0.0 18.03 -0.0 -0.14 -17.19 -5.03 4.22 -2.33 -2.83 1.06 -0.59 -0.69 1.78 -0.95 -1.16 -0.87 -0.11 0.5 -0.88 -0.11 0.51 -16.01 0.72 9.21 23.15 -4.07 -10.66 20.07 -55.95 22.14 22.16 44.16 -15.22 -17.65 17.17 -56.96 5.98 -2.1 -3.44 -17.11 1.62 -66.06 -10.76 19.08 -4.55 11.98 30.08 27.66
32.49 94.19 25.0 -126.28 3.32 3.41 11.33 -17.0 -3.29 -0.0 32.28 0.0 -24.97 -17.87 5.73 8.67 -18.93 6.25 0.0 18.02 0.0 -0.57 -17.23 -5.0 4.36 -2.31 -2.88 1.1 -0.58 -0.7 1.84 -0.94 -1.17 -0.88 -0.12 0.51 -0.89 -0.11 0.51 -16.26 0.68 9.3 23.53 -4.01 -10.88 20.14 -55.93 21.68 17.36 44.07 -15.27 -16.11 15.77 -59.11 6.02 -2.15 -3.4 -17.11 1.59 -66.13 -10.8 19.16 -4.59 11.96 30.05 27.69
32.48 94.19 25.04 -125.97 3.34 3.43 11.17 -17.02 -3.32 -0.0 32.3 -0.0 -25.09 -17.87 5.79 8.71 -19.04 6.16 0.0 18.05 0.0 -0.64 -17.27 -5.02 4.51 -2.29 -2.92 1.14 -0.58 -0.71 1.9 -0.93 -1.19 -0.89 -0.11 0.51 -0.9 -0.13 0.52 -16.49 0.64 9.39 23.9 -3.96 -11.1 20.15 -55.91 21.3 15.16 43.82 -15.71 -15.71 15.56 -59.26 6.06 -2.21 -3.35 -17.09 1.57 -66.21 -10.82 19.24 -4.63 11.92 30.02 27.71
32.47 94.2 25.08 -125.65 3.35 3.44 11.1 -16.98 -3.34 0.0 32.24 -0.0 -25.28 -17.82 5.84 8.87 -19.03 6.07 0.0 17.85 0.0 -0.23 -17.34 -5.22 4.67 -2.26 -2.97 1.18 -0.68 -0.72 1.97 -0.81 -1.21 -0.9 -0.11 0.52 -0.91 -0.11 0.52 -16.74 0.56 9.51 25.94 -3.81 -11.72 17.89 -55.79 21.58 13.08 43.55 -16.1 -16.03 15.47 -57.84 6.08 -2.27 -3.31 -17.67 1.6 -66.26 -10.62 18.73 -4.6 11.86 30.53 27.89
32.46 94.2 25.12 -125.34 3.37 3.44 11.0 -16.98 -3.35 0.0 32.25 0.0 -25.45 -17.8 5.9 8.72 -19.16 6.02 0.0 17.95 0.0 -0.12 -17.4 -5.26 4.81 -2.24 -3.0 1.21 -0.68 -0.73 2.03 -0.79 -1.22 -0.91 -0.12 0.53 -0.92 -0.11 0.53 -16.98 0.53 9.64 26.2 -3.83 -11.91 17.84 -55.73 21.29 11.16 43.23 -16.41 -15.76 15.18 -57.89 6.11 -2.32 -3.26 -18.24 1.63 -66.32 -10.37 18.22 -4.56 11.75 31.04 28.05
